<svg viewBox="0 0 330 200" xmlns="http://www.w3.org/2000/svg"><g><g><g><g><g><line x1="61.953125" y1="176.921875" x2="56.953125" y2="176.921875" style="visibility: inherit;" fill="rgb(0, 0, 0)" stroke="rgb(204, 204, 204)" stroke-width="1px"></line><line x1="61.953125" y1="159.2296875" x2="56.953125" y2="159.2296875" style="visibility: inherit;" fill="rgb(0, 0, 0)" stroke="rgb(204, 204, 204)" stroke-width="1px"></line><line x1="61.953125" y1="141.5375" x2="56.953125" y2="141.5375" style="visibility: inherit;" fill="rgb(0, 0, 0)" stroke="rgb(204, 204, 204)" stroke-width="1px"></line><line x1="61.953125" y1="123.84531249999999" x2="56.953125" y2="123.84531249999999" style="visibility: inherit;" fill="rgb(0, 0, 0)" stroke="rgb(204, 204, 204)" stroke-width="1px"></line><line x1="61.953125" y1="106.153125" x2="56.953125" y2="106.153125" style="visibility: inherit;" fill="rgb(0, 0, 0)" stroke="rgb(204, 204, 204)" stroke-width="1px"></line><line x1="61.953125" y1="88.46093749999999" x2="56.953125" y2="88.46093749999999" style="visibility: inherit;" fill="rgb(0, 0, 0)" stroke="rgb(204, 204, 204)" stroke-width="1px"></line><line x1="61.953125" y1="70.76874999999998" x2="56.953125" y2="70.76874999999998" style="visibility: inherit;" fill="rgb(0, 0, 0)" stroke="rgb(204, 204, 204)" stroke-width="1px"></line><line x1="61.953125" y1="53.07656250000001" x2="56.953125" y2="53.07656250000001" style="visibility: inherit;" fill="rgb(0, 0, 0)" stroke="rgb(204, 204, 204)" stroke-width="1px"></line><line x1="61.953125" y1="35.38437499999999" x2="56.953125" y2="35.38437499999999" style="visibility: inherit;" fill="rgb(0, 0, 0)" stroke="rgb(204, 204, 204)" stroke-width="1px"></line><line x1="61.953125" y1="17.692187499999996" x2="56.953125" y2="17.692187499999996" style="visibility: inherit;" fill="rgb(0, 0, 0)" stroke="rgb(204, 204, 204)" stroke-width="1px"></line><line x1="61.953125" y1="0" x2="56.953125" y2="0" style="visibility: inherit;" fill="rgb(0, 0, 0)" stroke="rgb(204, 204, 204)" stroke-width="1px"></line></g><g transform="translate(51.953125, 0)"><text x="0" y="176.921875" dx="0em" dy="0.3em" style="text-anchor: end; visibility: hidden; font-family: Roboto, sans-serif; font-size: 12px; font-weight: 200;" fill="rgb(33, 33, 33)" stroke="none" stroke-width="1px">-0.02</text><text x="0" y="159.2296875" dx="0em" dy="0.3em" style="text-anchor: end; visibility: inherit; font-family: Roboto, sans-serif; font-size: 12px; font-weight: 200;" fill="rgb(33, 33, 33)" stroke="none" stroke-width="1px">0</text><text x="0" y="141.5375" dx="0em" dy="0.3em" style="text-anchor: end; visibility: hidden; font-family: Roboto, sans-serif; font-size: 12px; font-weight: 200;" fill="rgb(33, 33, 33)" stroke="none" stroke-width="1px">0.02</text><text x="0" y="123.84531249999999" dx="0em" dy="0.3em" style="text-anchor: end; visibility: inherit; font-family: Roboto, sans-serif; font-size: 12px; font-weight: 200;" fill="rgb(33, 33, 33)" stroke="none" stroke-width="1px">0.04</text><text x="0" y="106.153125" dx="0em" dy="0.3em" style="text-anchor: end; visibility: hidden; font-family: Roboto, sans-serif; font-size: 12px; font-weight: 200;" fill="rgb(33, 33, 33)" stroke="none" stroke-width="1px">0.06</text><text x="0" y="88.46093749999999" dx="0em" dy="0.3em" style="text-anchor: end; visibility: inherit; font-family: Roboto, sans-serif; font-size: 12px; font-weight: 200;" fill="rgb(33, 33, 33)" stroke="none" stroke-width="1px">0.08</text><text x="0" y="70.76874999999998" dx="0em" dy="0.3em" style="text-anchor: end; visibility: hidden; font-family: Roboto, sans-serif; font-size: 12px; font-weight: 200;" fill="rgb(33, 33, 33)" stroke="none" stroke-width="1px">0.1</text><text x="0" y="53.07656250000001" dx="0em" dy="0.3em" style="text-anchor: end; visibility: inherit; font-family: Roboto, sans-serif; font-size: 12px; font-weight: 200;" fill="rgb(33, 33, 33)" stroke="none" stroke-width="1px">0.12</text><text x="0" y="35.38437499999999" dx="0em" dy="0.3em" style="text-anchor: end; visibility: hidden; font-family: Roboto, sans-serif; font-size: 12px; font-weight: 200;" fill="rgb(33, 33, 33)" stroke="none" stroke-width="1px">0.14</text><text x="0" y="17.692187499999996" dx="0em" dy="0.3em" style="text-anchor: end; visibility: inherit; font-family: Roboto, sans-serif; font-size: 12px; font-weight: 200;" fill="rgb(33, 33, 33)" stroke="none" stroke-width="1px">0.16</text><text x="0" y="0" dx="0em" dy="0.3em" style="text-anchor: end; visibility: hidden; font-family: Roboto, sans-serif; font-size: 12px; font-weight: 200;" fill="rgb(33, 33, 33)" stroke="none" stroke-width="1px">0.18</text></g><line x1="61.953125" y1="0" x2="61.953125" y2="176.921875" fill="rgb(0, 0, 0)" stroke="rgb(204, 204, 204)" stroke-width="1px"></line></g></g><g transform="translate(61, 0)" clip-path="url(#clip_0)"><clipPath id="clip_0"><rect width="268" height="176"></rect></clipPath><g><g><g><line x1="0" y1="0" x2="0" y2="176.921875" fill="rgb(0, 0, 0)" stroke="rgb(66, 66, 66)" stroke-width="1px" opacity="0.25"></line><line x1="19.146205357142858" y1="0" x2="19.146205357142858" y2="176.921875" fill="rgb(0, 0, 0)" stroke="rgb(66, 66, 66)" stroke-width="1px" opacity="0.25"></line><line x1="38.292410714285715" y1="0" x2="38.292410714285715" y2="176.921875" fill="rgb(0, 0, 0)" stroke="rgb(66, 66, 66)" stroke-width="1px" opacity="0.25"></line><line x1="57.43861607142857" y1="0" x2="57.43861607142857" y2="176.921875" fill="rgb(0, 0, 0)" stroke="rgb(66, 66, 66)" stroke-width="1px" opacity="0.25"></line><line x1="76.58482142857143" y1="0" x2="76.58482142857143" y2="176.921875" fill="rgb(0, 0, 0)" stroke="rgb(66, 66, 66)" stroke-width="1px" opacity="0.25"></line><line x1="95.73102678571429" y1="0" x2="95.73102678571429" y2="176.921875" fill="rgb(0, 0, 0)" stroke="rgb(66, 66, 66)" stroke-width="1px" opacity="0.25"></line><line x1="114.87723214285714" y1="0" x2="114.87723214285714" y2="176.921875" fill="rgb(0, 0, 0)" stroke="rgb(66, 66, 66)" stroke-width="1px" opacity="0.25"></line><line x1="134.0234375" y1="0" x2="134.0234375" y2="176.921875" fill="rgb(0, 0, 0)" stroke="rgb(66, 66, 66)" stroke-width="1px" opacity="0.25"></line><line x1="153.16964285714286" y1="0" x2="153.16964285714286" y2="176.921875" fill="rgb(0, 0, 0)" stroke="rgb(66, 66, 66)" stroke-width="1px" opacity="0.25"></line><line x1="172.31584821428572" y1="0" x2="172.31584821428572" y2="176.921875" fill="rgb(0, 0, 0)" stroke="rgb(66, 66, 66)" stroke-width="1px" opacity="0.25"></line><line x1="191.46205357142858" y1="0" x2="191.46205357142858" y2="176.921875" fill="rgb(0, 0, 0)" stroke="rgb(66, 66, 66)" stroke-width="1px" opacity="0.25"></line><line x1="210.60825892857142" y1="0" x2="210.60825892857142" y2="176.921875" fill="rgb(0, 0, 0)" stroke="rgb(66, 66, 66)" stroke-width="1px" opacity="0.25"></line><line x1="229.75446428571428" y1="0" x2="229.75446428571428" y2="176.921875" fill="rgb(0, 0, 0)" stroke="rgb(66, 66, 66)" stroke-width="1px" opacity="0.25"></line><line x1="248.90066964285714" y1="0" x2="248.90066964285714" y2="176.921875" fill="rgb(0, 0, 0)" stroke="rgb(66, 66, 66)" stroke-width="1px" opacity="0.25"></line><line x1="268.046875" y1="0" x2="268.046875" y2="176.921875" fill="rgb(0, 0, 0)" stroke="rgb(66, 66, 66)" stroke-width="1px" opacity="0.25"></line></g><g><line x1="0" y1="176.921875" x2="268.046875" y2="176.921875" fill="rgb(0, 0, 0)" stroke="rgb(66, 66, 66)" stroke-width="1px" opacity="0.25"></line><line x1="0" y1="159.2296875" x2="268.046875" y2="159.2296875" fill="rgb(0, 0, 0)" stroke="rgb(66, 66, 66)" stroke-width="1px" opacity="0.25"></line><line x1="0" y1="141.5375" x2="268.046875" y2="141.5375" fill="rgb(0, 0, 0)" stroke="rgb(66, 66, 66)" stroke-width="1px" opacity="0.25"></line><line x1="0" y1="123.84531249999999" x2="268.046875" y2="123.84531249999999" fill="rgb(0, 0, 0)" stroke="rgb(66, 66, 66)" stroke-width="1px" opacity="0.25"></line><line x1="0" y1="106.153125" x2="268.046875" y2="106.153125" fill="rgb(0, 0, 0)" stroke="rgb(66, 66, 66)" stroke-width="1px" opacity="0.25"></line><line x1="0" y1="88.46093749999999" x2="268.046875" y2="88.46093749999999" fill="rgb(0, 0, 0)" stroke="rgb(66, 66, 66)" stroke-width="1px" opacity="0.25"></line><line x1="0" y1="70.76874999999998" x2="268.046875" y2="70.76874999999998" fill="rgb(0, 0, 0)" stroke="rgb(66, 66, 66)" stroke-width="1px" opacity="0.25"></line><line x1="0" y1="53.07656250000001" x2="268.046875" y2="53.07656250000001" fill="rgb(0, 0, 0)" stroke="rgb(66, 66, 66)" stroke-width="1px" opacity="0.25"></line><line x1="0" y1="35.38437499999999" x2="268.046875" y2="35.38437499999999" fill="rgb(0, 0, 0)" stroke="rgb(66, 66, 66)" stroke-width="1px" opacity="0.25"></line><line x1="0" y1="17.692187499999996" x2="268.046875" y2="17.692187499999996" fill="rgb(0, 0, 0)" stroke="rgb(66, 66, 66)" stroke-width="1px" opacity="0.25"></line><line x1="0" y1="0" x2="268.046875" y2="0" fill="rgb(0, 0, 0)" stroke="rgb(66, 66, 66)" stroke-width="1px" opacity="0.25"></line></g></g></g><g><g><line x1="0" y1="159.2296875" x2="268.046875" y2="159.2296875" fill="rgb(0, 0, 0)" stroke="rgb(153, 153, 153)" stroke-width="1.5px"></line></g></g><g><g><line x1="19.146205357142858" y1="0" x2="19.146205357142858" y2="176.921875" fill="rgb(0, 0, 0)" stroke="rgb(153, 153, 153)" stroke-width="1.5px"></line></g></g><g><g><g><g><g><path stroke="rgb(255, 112, 67)" stroke-width="2px" d="M30.251004464285714,-9.64794771393625L30.63392857142857,7.98919940016553L31.01685267857143,23.840457378231736L31.399776785714288,36.64142619050647L31.782700892857143,41.79030466166645L32.165625,47.40979969521693L32.548549107142854,58.87084398515663L32.93147321428572,70.67987277947934L33.31439732142857,81.95121222912762L33.69732142857143,86.2575705151823L34.08024553571428,93.49230558344392L34.46316964285714,96.50431983624904L34.84609375,100.55650356981052L35.22901785714286,98.12199102513655L35.61194196428572,96.28115207175034L35.99486607142857,96.89351593209796L36.37779017857142,102.64075264570975L36.760714285714286,110.78635506094865L37.14363839285714,114.71344366278262L37.526562500000004,119.38963769145879L37.90948660714286,124.2098603277118L38.292410714285715,127.97957593195571L38.67533482142857,130.86539170807814L39.058258928571426,132.82258890449066L39.44118303571428,132.04223079358235L39.824107142857144,128.6068611601374L40.20703125,126.25684268197928L40.58995535714286,130.14358348896832L40.97287946428571,134.75955509936702L41.35580357142857,136.54268766679928L41.73872767857143,139.20143413358085L42.121651785714285,141.09842907967672L42.50457589285714,143.6949298146198L42.8875,145.62721379926185L43.27042410714286,146.94454354959953L43.653348214285714,145.56834069211655L44.03627232142857,143.38016698062324L44.419196428571425,143.77880259888423L44.80212053571429,143.4477888066481L45.18504464285714,143.0356882883378L45.567968750000006,144.07812189545987L45.950892857142854,145.27376667756027L46.33381696428571,148.0554249934581L46.71674107142857,149.68305545723186L47.09966517857143,148.93391564640777L47.48258928571428,145.20920171905226L47.865513392857146,147.9601661546337L48.2484375,149.7371819359912L48.63136160714286,151.0547726517463L49.01428571428571,151.76295970275225L49.39720982142857,151.3713978324172L49.78013392857143,151.98777389769495L50.163058035714286,152.61388190719538L50.54598214285715,153.2455980738162L50.92890625,153.01742002536093L51.31183035714285,153.80869880292505L51.694754464285715,153.80308463094033L52.07767857142857,153.95530343914703L52.460602678571426,153.95032274744722L52.84352678571429,154.25448441533743L53.226450892857144,153.87967549064768L53.609375,154.31366951618685L53.992299107142856,154.81153685271212L54.37522321428571,154.25260992744495L54.758147321428574,154.4884439895762L55.14107142857143,155.00819086973544L55.52399553571429,155.5784839919515L55.90691964285714,154.82255101714625L56.289843749999996,155.14449609387222L56.67276785714286,155.4440062307039L57.055691964285714,155.63604437629863L57.43861607142857,155.75213470235454L57.82154017857143,155.56233105446435L58.20446428571429,155.99883983249072L58.58738839285714,156.07018820247063L58.9703125,156.30017845093118L59.353236607142854,156.19895197198738L59.73616071428572,156.5237551420674L60.11908482142857,156.1570244902791L60.50200892857143,156.18997592631567L60.88493303571428,155.89308041889495L61.26785714285714,156.02520589266348L61.65078125,156.3427219921944L62.03370535714286,156.3468482482499L62.41662946428571,156.2085568835426L62.799553571428575,156.35734695454977L63.18247767857143,156.61081983527745L63.565401785714286,156.66341257131663L63.94832589285714,156.44013286448023L64.33125,156.78810315609965L64.71417410714285,156.68638758892507L65.09709821428571,156.81167772100494L65.48002232142856,156.57719884074697L65.86294642857143,156.39576487933772L66.24587053571429,156.50426648267552L66.62879464285714,156.34916587767364L67.01171875,156.759671845517L67.39464285714286,156.5932968820026L67.77756696428571,156.76106351965444L68.16049107142857,157.0342024295522L68.54341517857144,156.4959577915299L68.92633928571428,156.57544547181266L69.30926339285715,156.6228821900973L69.6921875,156.63112364746942L70.07511160714286,156.45806695371297L70.45803571428571,156.69791892212882L70.84095982142857,156.6001472970824L71.22388392857144,156.8046159896743L71.60680803571428,156.65640324235022L71.98973214285714,156.96897934615978L72.37265625,156.6292216365324L72.75558035714285,156.7564017698519L73.13850446428572,156.81730546001438L73.52142857142857,157.00659012600542L73.90435267857143,156.36294271641745L74.28727678571428,156.5521921282304L74.67020089285714,156.76461273317776L75.05312500000001,156.97296518584503L75.43604910714285,156.86184194939398L75.81897321428572,157.03486078780716L76.20189732142858,156.67057649746783L76.58482142857143,156.9953833157166L76.96774553571429,157.18571114967918L77.35066964285714,156.9942830554052L77.73359375,157.17579718809822L78.11651785714285,156.74041330003212L78.49944196428572,156.53883579309723L78.88236607142856,156.31354273242005L79.26529017857143,156.60400997850357L79.64821428571429,156.74914186486384L80.03113839285714,156.92790677088493L80.4140625,157.01976972800654L80.79698660714286,156.9079121847566L81.17991071428573,157.12359091326724L81.56283482142857,156.6194025196215L81.94575892857142,157.0509971533608L82.32868303571429,157.01777575695897L82.71160714285713,156.7824750016444L83.09453125,157.1328271343085L83.47745535714286,157.33002613314287L83.86037946428571,157.1079737172359L84.24330357142857,156.81065077809376L84.62622767857142,156.6589019402172L85.00915178571428,156.9719033426235L85.39207589285714,157.16313900734028L85.775,157.12474827006682L86.15792410714286,156.39202835925312L86.54084821428572,156.50273893675256L86.92377232142857,156.81370901405737L87.30669642857143,157.15425422077755L87.68962053571428,157.2577389802989L88.07254464285714,156.75687035888822L88.45546875000001,156.7843689592292L88.83839285714285,157.07518042845237L89.22131696428572,157.276362120117L89.60424107142858,156.93272536660334L89.98716517857142,157.00454106398894L90.37008928571429,157.19728478993213L90.75301339285714,157.23795347670506L91.13593750000001,156.80340596417852L91.51886160714285,156.592725102299L91.90178571428571,157.0362715529487L92.28470982142858,157.23675077447612L92.66763392857142,157.13791434492632L93.05055803571429,157.0430682617233L93.43348214285714,156.89871555747453L93.81640625,157.17596979467362L94.19933035714286,156.99307729698495L94.58225446428571,156.89363868870925L94.96517857142857,157.23613840248518L95.34810267857142,157.2276957089133L95.73102678571429,157.20541363017185L96.11395089285715,157.22653291844952L96.496875,157.19947622740463L96.87979910714286,157.4649834434499L97.26272321428571,156.88967095972168L97.64564732142857,157.089483118127L98.02857142857142,156.861198858417L98.4114955357143,157.0913104164349L98.79441964285714,157.0694683348584L99.17734375,157.3297240464291L99.56026785714286,156.87343028480467L99.9431919642857,157.2405333343029L100.32611607142857,157.34921971823402L100.70904017857143,156.92728880067708L101.0919642857143,157.15494610829379L101.47488839285714,157.30347409807592L101.8578125,157.02865216207348L102.24073660714286,157.31051814757953L102.6236607142857,157.4525617714591L103.00658482142858,156.92048560502957L103.38950892857143,156.9647693018518L103.77243303571429,157.01416315111197L104.15535714285714,157.0185456994503L104.53828125,157.31417240102493L104.92120535714285,157.29310239713837L105.30412946428571,157.3417119146L105.68705357142858,156.99312121215019L106.06997767857143,157.15772362657952L106.45290178571429,157.38532159544252L106.83582589285714,157.25266889399433L107.21875,157.272967341699L107.60167410714286,157.4023140716594L107.98459821428571,157.29961349559306L108.36752232142858,157.2743146018189L108.75044642857142,157.07680663731654L109.13337053571429,157.14410477286097L109.51629464285715,157.3449557766161L109.89921874999999,157.29256192958698L110.28214285714286,157.02578494638692L110.66506696428571,157.3028600359131L111.04799107142858,156.98615993269394L111.43091517857142,157.16622263540864L111.81383928571428,157.00838020353106L112.19676339285715,157.23260251764992L112.57968749999999,157.271076688727L112.96261160714286,157.0497553741764L113.34553571428572,156.81447761548546L113.72845982142857,156.78543241705376L114.11138392857143,156.81498168831132L114.49430803571428,156.93579878980273L114.87723214285714,156.98765209993252L115.26015625,157.2897963744263L115.64308035714286,157.26511151902028L116.02600446428572,157.2798549812531L116.40892857142858,157.29016983028305L116.79185267857143,157.44010858996108L117.17477678571429,157.0045650993111L117.55770089285714,157.25285034296706L117.940625,157.36005558042086L118.32354910714287,157.45600139056637L118.70647321428571,157.29092700496818L119.08939732142858,157.46089670747156L119.47232142857143,157.4494750688099L119.85524553571427,157.41593267174343L120.23816964285714,157.5243210078543L120.62109375,157.4219442311774L121.00401785714286,157.08305798216156L121.38694196428571,157.11592124711248L121.76986607142857,157.22500508226094L122.15279017857144,157.45776011996665L122.53571428571428,157.49805487350386L122.91863839285715,157.47885464156892L123.3015625,156.99746967679897L123.68448660714286,156.97744368981674L124.06741071428571,157.3226178759569L124.45033482142857,157.3674190377756L124.83325892857142,157.45073305244208L125.21618303571428,157.34693538889817L125.59910714285715,157.29861325248478L125.98203124999999,156.74235968642802L126.36495535714286,157.0659566545555L126.74787946428572,157.301111509189L127.13080357142857,157.14708590083046L127.51372767857143,157.26382830401573L127.89665178571428,157.18421515436034L128.27957589285714,157.1889869942768L128.6625,157.07273352152532L129.04542410714285,157.2213855967588L129.4283482142857,157.228849517707L129.81127232142856,157.32602525809907L130.19419642857142,156.98613399323207L130.5771205357143,156.7240629637849L130.96004464285713,156.9744470011712L131.34296875,156.88302971380165L131.72589285714287,157.0841106663821L132.10881696428572,156.97726901087208L132.49174107142858,157.00491874857516L132.87466517857143,156.56787324788294L133.2575892857143,156.9189611102404L133.64051339285714,157.27615535747015L134.0234375,157.46157970513863L134.40636160714286,157.36832420942477L134.7892857142857,157.42591055566945L135.1722098214286,157.42877082132452L135.55513392857142,157.37784533993647L135.93805803571428,157.2179393619439L136.32098214285713,157.446132917764L136.70390625,157.41361934110301L137.08683035714287,157.25454114052283L137.46975446428573,157.23015746110653L137.85267857142856,157.31429712410167L138.2356026785714,157.40763654587002L138.6185267857143,157.4936071206403L139.00145089285715,157.49855168028165L139.384375,157.2648339896449L139.76729910714286,156.72113900893024L140.15022321428572,157.0534571935333L140.53314732142857,157.18475025309962L140.91607142857143,157.32787329130338L141.29899553571428,157.22627551946596L141.68191964285714,157.45490845257433L142.06484375,157.41679354896235L142.44776785714288,157.46179857493772L142.8306919642857,157.26226065232493L143.21361607142856,157.3777222881275L143.59654017857142,157.49222665338542L143.97946428571427,157.3054179908666L144.36238839285716,157.359724655577L144.7453125,157.43912641111592L145.12823660714287,157.4161741925509L145.5111607142857,157.5441990179395L145.89408482142858,157.59632354634593L146.27700892857143,157.1514699025948L146.6599330357143,157.14629517130322L147.04285714285714,157.32818632034827L147.42578125,157.25249745515856L147.80870535714286,157.1784852695465L148.1916294642857,156.85619530146377L148.57455357142857,157.18227552158083L148.95747767857142,157.4291095808703L149.34040178571428,157.18856963290898L149.72332589285716,157.18391548775986L150.10625000000002,157.2088563233399L150.48917410714284,157.18676358642077L150.8720982142857,157.0550405666323L151.25502232142858,156.95853794485961L151.63794642857144,156.1884209218658L152.0208705357143,156.57631919667415L152.40379464285715,156.75645688975544L152.78671874999998,156.83883484762512L153.16964285714286,157.06553094670895L153.55256696428572,157.24893577141674L153.93549107142857,157.35644271179987L154.31841517857143,157.39877849927387L154.70133928571428,157.4497102604709L155.08426339285717,157.5765940223987L155.4671875,157.22053557335204L155.85011160714285,157.35910323060853L156.2330357142857,157.45761464263188L156.61595982142856,157.42127382126574L156.99888392857144,157.36190500639196L157.3818080357143,157.24001315322468L157.76473214285713,157.12062054834726L158.14765624999998,157.0347199069953L158.53058035714287,157.30581279681493L158.91350446428572,156.77462191290684L159.29642857142858,156.78988405147885L159.67935267857143,157.03540243848929L160.0622767857143,157.10834812980198L160.44520089285714,157.36897291255607L160.828125,156.94958886769433L161.21104910714286,157.1020505859006L161.5939732142857,157.20527696648983L161.97689732142857,157.07732544633183L162.35982142857145,156.92741781081133L162.74274553571428,157.0977037682035L163.12566964285713,156.89508783353185L163.50859375,156.85967382657924L163.89151785714284,157.21941687336243L164.27444196428573,157.39416007970618L164.65736607142858,156.74951079162562L165.04029017857144,157.13513394029968L165.42321428571427,156.75084109141494L165.80613839285715,157.06038265007263L166.1890625,157.25168517738092L166.57198660714286,157.33671562250694L166.95491071428572,156.87793409432095L167.33783482142857,156.81712388665002L167.72075892857143,156.85305262224963L168.10368303571428,157.03492372316947L168.48660714285714,157.18207692627107L168.86953125,157.35734912371262L169.25245535714285,157.28061316684878L169.63537946428573,157.24780207193643L170.01830357142856,156.74303395648838L170.40122767857142,157.04684425779118L170.78415178571427,156.7631369155063L171.16707589285716,156.7979927644662L171.55,156.8879011401915L171.93292410714287,156.977910821365L172.31584821428572,157.0961171448511L172.69877232142855,156.8905222593477L173.08169642857143,156.87073292807037L173.4646205357143,157.1991207889092L173.84754464285714,157.39630097575835L174.23046875,157.50812204036438L174.61339285714286,157.23419675431856L174.9963169642857,157.39138077564996L175.37924107142857,157.37943522049662L175.76216517857142,157.4525667264979L176.14508928571428,156.96466352611253L176.52801339285713,157.03914888327233L176.91093750000002,157.32079635550159L177.29386160714287,157.31256766460504L177.6767857142857,157.43301966557075L178.05970982142856,157.5703458026957L178.44263392857144,157.59198510304213L178.8255580357143,157.3008198690347L179.20848214285715,157.48589931180734L179.59140625,157.13704731630702L179.97433035714283,157.47950375028063L180.35725446428572,157.33325300920492L180.74017857142857,157.09168481492637L181.12310267857143,157.1473075232097L181.50602678571428,157.16965728670718L181.88895089285714,157.0009513187484L182.27187500000002,157.08547339417973L182.65479910714285,157.34798845207695L183.0377232142857,157.30625240338935L183.42064732142856,157.1432726972919L183.80357142857142,156.7881810034013L184.1864955357143,157.07729423312435L184.56941964285716,157.37964066666143L184.95234374999998,157.51899879941743L185.33526785714284,157.43925645173974L185.71819196428572,157.3753279601704L186.10111607142858,157.36496353798137L186.48404017857143,157.33985310950956L186.8669642857143,157.28310761340953L187.24988839285714,157.40473697440405L187.6328125,157.16882654123L188.01573660714286,157.26629692243156L188.3986607142857,157.39186295835262L188.78158482142857,157.3607091764577L189.16450892857142,157.28436432305094L189.5474330357143,157.18732341175038L189.93035714285713,157.12313488407312L190.31328125,157.03171665731924L190.69620535714284,157.0947360499674L191.07912946428573,156.97542750641875L191.46205357142858,157.07155142457222L191.84497767857144,157.31759817511863L192.2279017857143,157.4712595750759L192.61082589285712,157.30474156667404L192.99375,157.443718551554L193.37667410714286,157.42835390292646L193.75959821428572,157.1674866900878L194.14252232142857,157.31886067622713L194.52544642857143,157.16674575679832L194.90837053571428,157.373970502329L195.29129464285714,157.4624048061599L195.67421875,157.6167511526347L196.05714285714285,157.38873952115898L196.4400669642857,157.40205718956435L196.8229910714286,157.47706498899504L197.20591517857144,157.40657295343559L197.58883928571427,157.02143644768486L197.97176339285713,156.90245400404396L198.3546875,157.1072897597048L198.73761160714287,157.19358956757856L199.12053571428572,157.22437906702177L199.50345982142858,157.2186224826243L199.8863839285714,157.4126386161933L200.2693080357143,157.12585188938746L200.65223214285714,157.0116814894483L201.03515625,157.04790461530285L201.41808035714286,157.21227362179388L201.8010044642857,157.17194624142778L202.1839285714286,157.2745842792938L202.56685267857142,157.3231352546532L202.94977678571428,157.0798526852705L203.33270089285713,157.26263046466295L203.715625,157.32829741855477L204.09854910714287,157.4008531674959L204.48147321428573,157.0521778216919L204.86439732142856,157.24562424592668L205.2473214285714,157.28086327437157L205.6302455357143,157.4421449187819L206.01316964285715,156.99690003697506L206.39609375,157.208096119022L206.77901785714286,156.98123536568033L207.16194196428572,157.26799293147585L207.54486607142857,157.40186587428107L207.92779017857143,157.43906894010593L208.31071428571428,157.57798483072455L208.69363839285714,157.33916821720285L209.0765625,157.04266759944463L209.45948660714288,157.1614535079988L209.8424107142857,157.18378903731414L210.22533482142856,157.36143907754877L210.60825892857142,157.44354968336594L210.99118303571427,157.27834716298554L211.37410714285716,157.4026766732817L211.75703125,157.57538240483984L212.13995535714287,157.1553331670604L212.5228794642857,157.15535680884207L212.90580357142858,156.69754947003125L213.28872767857143,156.6933574818778L213.6716517857143,156.87854798262123L214.05457589285714,157.1267567307112L214.4375,157.30395748231624L214.82042410714286,157.3482152441979L215.2033482142857,157.57572461094367L215.58627232142857,157.4774502728654L215.96919642857142,157.64479320961885L216.35212053571428,157.4408285400085L216.73504464285716,156.9003909979689L217.11796875000002,157.0890995395276L217.50089285714284,157.38769488918004L217.8838169642857,157.42327340493682L218.26674107142858,157.26340532845694L218.64966517857144,157.26996945252964L219.0325892857143,157.25932343931262L219.41551339285715,157.2127324492232L219.79843749999998,156.78710380074557L220.18136160714286,157.14718816824185L220.56428571428572,156.88575922060272L220.94720982142857,157.2181933005437L221.33013392857143,157.16944319638887L221.71305803571428,157.43080347008524L222.09598214285717,157.25726859386643L222.47890625,157.32046315608144L222.86183035714285,157.15958055764162L223.2447544642857,157.21247503814726L223.62767857142856,157.29992075042517L224.01060267857144,157.27584950297475L224.3935267857143,157.43575035782933L224.77645089285713,157.38287726778003L225.15937499999998,157.47115423582716L225.54229910714287,157.45233457102898L225.92522321428572,157.48116409818394L226.30814732142858,157.5543886249649L226.69107142857143,157.2089276045009L227.0739955357143,157.06389946098534L227.45691964285714,157.26505829099543L227.83984375,156.9346824584131L228.22276785714286,156.86637025975068L228.6056919642857,157.07455929985937L228.98861607142857,157.0233772305612L229.37154017857145,157.2989827636039L229.75446428571428,157.08230017830917L230.13738839285713,157.4146699321337L230.5203125,157.44804532412016L230.90323660714284,157.56810883970246L231.28616071428573,157.63468968120637L231.66908482142858,157.28247124285937L232.05200892857144,157.10856675306826L232.43493303571427,157.313758012602L232.81785714285715,157.07447283795864L233.20078125,157.23613379534447L233.58370535714286,157.25017459288756L233.96662946428572,157.0479647048843L234.34955357142857,157.18051762293598L234.73247767857143,157.31126846121757L235.11540178571428,157.1364422701808L235.49832589285714,156.98899427561724L235.88125,157.23824291024735L236.26417410714285,157.23283853137946L236.64709821428573,157.2414988206095L237.03002232142856,157.42026470769935L237.41294642857142,157.2844213520969L237.79587053571427,156.89425578561506L238.17879464285716,157.13039357216888L238.56171875,157.23971803718348L238.94464285714287,157.30565848884112L239.32756696428572,157.29983212885807L239.71049107142855,157.43656936611558L240.09341517857143,157.28846886886427L240.4763392857143,157.18583154478557L240.85926339285714,156.89114887121315L241.2421875,157.18678437060964L241.62511160714286,157.39233431878708L242.0080357142857,157.4817029792538L242.39095982142857,157.55788137145015L242.77388392857142,157.3305538170754L243.15680803571428,156.83194325734695L243.53973214285713,156.65661732764676L243.92265625000002,157.00934199173682L244.30558035714287,157.33181509019363L244.6885044642857,156.72366168329097L245.07142857142856,156.42104043442828L245.45435267857144,156.60370230310926L245.8372767857143,157.02853121172245L246.22020089285715,157.2166092488776L246.603125,157.30240201833436L246.98604910714283,157.02634134592122L247.36897321428572,157.27532704698908L247.75189732142857,156.99069437351332L248.13482142857143,157.13417432356363L248.51774553571428,156.97896332232543L248.90066964285714,157.0319123604449L249.28359375000002,157.28560360426317L249.66651785714285,157.43558293902967L250.0494419642857,157.29978775580193" style="fill: none;" fill="none"></path></g></g></g></g><g opacity="0.2"><g><g><g><path stroke="rgb(255, 112, 67)" stroke-width="2px" d="M29.48515625,-18.50001786141658L29.86808035714286,16.08829329600558L30.251004464285714,21.299325209064413L30.63392857142857,34.44491422264837L31.01685267857143,47.617341191461314L31.399776785714288,55.842877880739984L31.782700892857143,49.51362199960277L32.165625,55.83904200403486L32.548549107142854,76.062410124531L32.93147321428572,88.39341578825841L33.31439732142857,98.8582212989684L33.69732142857143,92.71710792027878L34.08024553571428,104.34440816165878L34.46316964285714,101.02234120941719L34.84609375,106.6347791652777L35.22901785714286,94.4702222098829L35.61194196428572,93.51989364246836L35.99486607142857,97.81206172246019L36.37779017857142,111.26160771523135L36.760714285714286,123.00475868304491L37.14363839285714,120.60407656531314L37.526562500000004,126.40392873431554L37.90948660714286,131.44019428199388L38.292410714285715,133.63414933827588L38.67533482142857,135.19411537224076L39.058258928571426,135.75838469910084L39.44118303571428,130.87169362722196L39.824107142857144,123.45380670997545L40.20703125,122.73181496474425L40.58995535714286,135.97369469944968L40.97287946428571,141.6835125149635L41.35580357142857,139.2173865179473L41.73872767857143,143.18955383375285L42.121651785714285,143.9439214988204L42.50457589285714,147.58968091703426L42.8875,148.52563977622484L43.27042410714286,148.92053817510603L43.653348214285714,143.5040364058921L44.03627232142857,140.0979064133833L44.419196428571425,144.37675602627567L44.80212053571429,142.95126811829394L45.18504464285714,142.41753751087234L45.567968750000006,145.64177230614294L45.950892857142854,147.0672338507109L46.33381696428571,152.22791246730486L46.71674107142857,152.1245011528925L47.09966517857143,147.81020593017163L47.48258928571428,139.62213082801898L47.865513392857146,152.0866128080059L48.2484375,152.40270560802747L48.63136160714286,153.03115872537893L49.01428571428571,152.8252402792612L49.39720982142857,150.7840550269146L49.78013392857143,152.9123379956116L50.163058035714286,153.5530439214461L50.54598214285715,154.19317232374743L50.92890625,152.67515295267805L51.31183035714285,154.99561696927123L51.694754464285715,153.79466337296327L52.07767857142857,154.18363165145712L52.460602678571426,153.94285170989752L52.84352678571429,154.71072691717274L53.226450892857144,153.31746210361308L53.609375,154.96466055449565L53.992299107142856,155.55833785750002L54.37522321428571,153.41421953954415L54.758147321428574,154.84219508277312L55.14107142857143,155.78781118997432L55.52399553571429,156.4339236752756L55.90691964285714,153.68865155493842L56.289843749999996,155.62741370896111L56.67276785714286,155.89327143595148L57.055691964285714,155.92410159469074L57.43861607142857,155.9262701914384L57.82154017857143,155.27762558262913L58.20446428571429,156.65360299953028L58.58738839285714,156.1772107574405L58.9703125,156.645163823622L59.353236607142854,156.0471122535717L59.73616071428572,157.01095989718743L60.11908482142857,155.60692851259665L60.50200892857143,156.23940308037055L60.88493303571428,155.44773715776392L61.26785714285714,156.22339410331625L61.65078125,156.8189961414908L62.03370535714286,156.35303763233316L62.41662946428571,156.00111983648168L62.799553571428575,156.58053206106052L63.18247767857143,156.99102915636905L63.565401785714286,156.74230167537536L63.94832589285714,156.10521330422563L64.33125,157.31005859352882L64.71417410714285,156.5338142381632L65.09709821428571,156.9996129191248L65.48002232142856,156.22548052036L65.86294642857143,156.12361393722387L66.24587053571429,156.66701888768222L66.62879464285714,156.11651497017084L67.01171875,157.37543079728204L67.39464285714286,156.34373443673104L67.77756696428571,157.0127134761322L68.16049107142857,157.44391079439885L68.54341517857144,155.68859083449644L68.92633928571428,156.6946769922368L69.30926339285715,156.69403726752427L69.6921875,156.64348583352768L70.07511160714286,156.1984819130783L70.45803571428571,157.0576968747526L70.84095982142857,156.45348985951279L71.22388392857144,157.11131902856215L71.60680803571428,156.43408412136415L71.98973214285714,157.43784350187417L72.37265625,156.1195850720913L72.75558035714285,156.94717196983112L73.13850446428572,156.90866099525812L73.52142857142857,157.29051712499205L73.90435267857143,155.39747160203552L74.28727678571428,156.83606624594978L74.67020089285714,157.08324364059882L75.05312500000001,157.28549386484593L75.43604910714285,156.69515709471744L75.81897321428572,157.29438904542695L76.20189732142858,156.1241500619588L76.58482142857143,157.48259354308976L76.96774553571429,157.47120290062304L77.35066964285714,156.70714091399424L77.73359375,157.44806838713777L78.11651785714285,156.08733746793297L78.49944196428572,156.2364695326949L78.88236607142856,155.9756031414043L79.26529017857143,157.0397108476289L79.64821428571429,156.9668396944042L80.03113839285714,157.1960541299166L80.4140625,157.15756416368896L80.79698660714286,156.74012586988175L81.17991071428573,157.44710900603314L81.56283482142857,155.8631199291529L81.94575892857142,157.69838910396976L82.32868303571429,156.96794366235628L82.71160714285713,156.42952386867256L83.09453125,157.65835533330466L83.47745535714286,157.62582463139444L83.86037946428571,156.7748950933754L84.24330357142857,156.3646663693806L84.62622767857142,156.43127868340235L85.00915178571428,157.44140544623298L85.39207589285714,157.44999250441543L85.775,157.06716216415663L86.15792410714286,155.2929484930326L86.54084821428572,156.6688048030017L86.92377232142857,157.2801641300146L87.30669642857143,157.66507203085786L87.68962053571428,157.41296611958097L88.07254464285714,156.0055674267722L88.45546875000001,156.8256168597407L88.83839285714285,157.51139763228713L89.22131696428572,157.57813465761393L89.60424107142858,156.41727023633285L89.98716517857142,157.11226461006737L90.37008928571429,157.4864003788469L90.75301339285714,157.2989565068645L91.13593750000001,156.15158469538875L91.51886160714285,156.27670380947967L91.90178571428571,157.7015912289233L92.28470982142858,157.53746960676727L92.66763392857142,156.98965970060163L93.05055803571429,156.9007991369188L93.43348214285714,156.6821865011014L93.81640625,157.59185115047222L94.19933035714286,156.71873855045197L94.58225446428571,156.7444807762957L94.96517857142857,157.7498879731491L95.34810267857142,157.21503166855547L95.73102678571429,157.17199051205972L96.11395089285715,157.25821185086608L96.496875,157.15889119083732L96.87979910714286,157.8632442675178L97.26272321428571,156.02670223412935L97.64564732142857,157.389201355735L98.02857142857142,156.51877246885198L98.4114955357143,157.43647775346182L98.79441964285714,157.0367052124937L99.17734375,157.72010761378516L99.56026785714286,156.18898964236797L99.9431919642857,157.79118790855028L100.32611607142857,157.51224929413075L100.70904017857143,156.29439242434165L101.0919642857143,157.49643206971888L101.47488839285714,157.52626608274915L101.8578125,156.6164192580698L102.24073660714286,157.7333171258386L102.6236607142857,157.66562720727853L103.00658482142858,156.12237135538527L103.38950892857143,157.03119484708515L103.77243303571429,157.08825392500222L104.15535714285714,157.02511952195783L104.53828125,157.7576124533869L104.92120535714285,157.26149739130852L105.30412946428571,157.4146261907925L105.68705357142858,156.47023515847542L106.06997767857143,157.40462724822356L106.45290178571429,157.72671854873698L106.83582589285714,157.05368984182206L107.21875,157.30341501325603L107.60167410714286,157.5963341666L107.98459821428571,157.14556263149353L108.36752232142858,157.23636626115768L108.75044642857142,156.78054469056298L109.13337053571429,157.24505197617765L109.51629464285715,157.64623228224883L109.89921874999999,157.2139711590433L110.28214285714286,156.62561947158684L110.66506696428571,157.7184726702024L111.04799107142858,156.51110977786522L111.43091517857142,157.43631668948075L111.81383928571428,156.77161655571473L112.19676339285715,157.56893598882817L112.57968749999999,157.32878794534264L112.96261160714286,156.7177734023506L113.34553571428572,156.46156097744898L113.72845982142857,156.74186461940627L114.11138392857143,156.85930559519767L114.49430803571428,157.11702444203985L114.87723214285714,157.06543206512725L115.26015625,157.74301278616696L115.64308035714286,157.22808423591124L116.02600446428572,157.30197017460233L116.40892857142858,157.305642103828L116.79185267857143,157.66501672947817L117.17477678571429,156.35124986333614L117.55770089285714,157.625278208451L117.940625,157.5208634366016L118.32354910714287,157.59992010578463L118.70647321428571,157.04331542657093L119.08939732142858,157.71585126122665L119.47232142857143,157.43234261081744L119.85524553571427,157.3656190761438L120.23816964285714,157.6869035120206L120.62109375,157.26837906616203L121.00401785714286,156.57472860863783L121.38694196428571,157.16521614453887L121.76986607142857,157.38863083498364L122.15279017857144,157.80689267652525L122.53571428571428,157.5584970038097L122.91863839285715,157.45005429366648L123.3015625,156.27539222964407L123.68448660714286,156.9474047093434L124.06741071428571,157.8403791551671L124.45033482142857,157.43462078050362L124.83325892857142,157.57570407444183L125.21618303571428,157.19123889358235L125.59910714285715,157.22613004786473L125.98203124999999,155.90797933734285L126.36495535714286,157.55135210674672L126.74787946428572,157.6538437911393L127.13080357142857,156.9160474882927L127.51372767857143,157.43894190879365L127.89665178571428,157.06479542987728L128.27957589285714,157.19614475415148L128.6625,156.89835331239811L129.04542410714285,157.44436370960904L129.4283482142857,157.24004539912931L129.81127232142856,157.47178886868716L130.19419642857142,156.47629709593167L130.5771205357143,156.3309564196141L130.96004464285713,157.35002305725067L131.34296875,156.74590378274735L131.72589285714287,157.38573209525276L132.10881696428572,156.81700652760702L132.49174107142858,157.04639335512985L132.87466517857143,155.91230499684463L133.2575892857143,157.44559290377657L133.64051339285714,157.8119467283148L134.0234375,157.7397162266414L134.40636160714286,157.22844096585396L134.7892857142857,157.51229007503645L135.1722098214286,157.43306121980714L135.55513392857142,157.30145711785445L135.93805803571428,156.97808039495504L136.32098214285713,157.78842325149418L136.70390625,157.36484897611155L137.08683035714287,157.01592383965254L137.46975446428573,157.19358194198213L137.85267857142856,157.44050661859438L138.2356026785714,157.54764567852254L138.6185267857143,157.62256298279573L139.00145089285715,157.5059685197437L139.384375,156.9142574536898L139.76729910714286,155.90559653785823L140.15022321428572,157.55193447043786L140.53314732142857,157.38168984244913L140.91607142857143,157.54255784860908L141.29899553571428,157.07387886170983L141.68191964285714,157.79785785223686L142.06484375,157.35962119354446L142.44776785714288,157.52930611390076L142.8306919642857,156.96295376840573L143.21361607142856,157.55091474183138L143.59654017857142,157.6639832012723L143.97946428571427,157.02520499708845L144.36238839285716,157.44118465264256L144.7453125,157.5582290444243L145.12823660714287,157.38174586470342L145.5111607142857,157.73623625602232L145.89408482142858,157.6745103389556L146.27700892857143,156.48418943696817L146.6599330357143,157.13853307436585L147.04285714285714,157.60102304391586L147.42578125,157.138964157374L147.80870535714286,157.06746699112847L148.1916294642857,156.37276034933967L148.57455357142857,157.67139585175647L148.95747767857142,157.79936066980446L149.34040178571428,156.8277597109671L149.72332589285716,157.17693427003616L150.10625000000002,157.24626757670995L150.48917410714284,157.15362448104207L150.8720982142857,156.8574560369496L151.25502232142858,156.81378401220064L151.63794642857144,155.03324538737508L152.0208705357143,157.1581666088867L152.40379464285715,157.02666342937738L152.78671874999998,156.9624017844297L153.16964285714286,157.40557509533465L153.55256696428572,157.5240430084785L153.93549107142857,157.5177031223746L154.31841517857143,157.46228218048492L154.70133928571428,157.52610790226646L155.08426339285717,157.76691966529035L155.4671875,156.68644789978208L155.85011160714285,157.56695471649329L156.2330357142857,157.60538176066694L156.61595982142856,157.36676258921653L156.99888392857144,157.2728517840813L157.3818080357143,157.05717537347374L157.76473214285713,156.9415316410312L158.14765624999998,156.90586894496738L158.53058035714287,157.71245213154435L158.91350446428572,155.9778355870447L159.29642857142858,156.81277725933688L159.67935267857143,157.40368001900498L160.0622767857143,157.21776666677107L160.44520089285714,157.75991008668717L160.828125,156.3205128004018L161.21104910714286,157.33074316321L161.5939732142857,157.3601165373737L161.97689732142857,156.88539816609483L162.35982142857145,156.70255635753057L162.74274553571428,157.3531327042918L163.12566964285713,156.59116393152436L163.50859375,156.80655281615037L163.89151785714284,157.75903144353725L164.27444196428573,157.65627488922183L164.65736607142858,155.78253685950477L165.04029017857144,157.7135686633108L165.42321428571427,156.1744018180878L165.80613839285715,157.52469498805914L166.1890625,157.53863896834338L166.57198660714286,157.46426129019602L166.95491071428572,156.18976180204191L167.33783482142857,156.7259085751437L167.72075892857143,156.906945725649L168.10368303571428,157.3077303745493L168.48660714285714,157.4028067309235L168.86953125,157.62025741987492L169.25245535714285,157.16550923155302L169.63537946428573,157.1985854295679L170.01830357142856,155.9858817833163L170.40122767857142,157.5025597097454L170.78415178571427,156.33757590207898L171.16707589285716,156.85027653790604L171.55,157.0227637037795L171.93292410714287,157.11292534312526L172.31584821428572,157.27342663008022L172.69877232142855,156.58212993109265L173.08169642857143,156.84104893115438L173.4646205357143,157.6917025801675L173.84754464285714,157.69207125603208L174.23046875,157.6758536372734L174.61339285714286,156.82330882524985L174.9963169642857,157.62715680764705L175.37924107142857,157.36151688776664L175.76216517857142,157.5622639854999L176.14508928571428,156.23280872553443L176.52801339285713,157.1508769190121L176.91093750000002,157.74326756384545L177.29386160714287,157.3002246282602L177.6767857142857,157.61369766701938L178.05970982142856,157.7763350083831L178.44263392857144,157.62444405356183L178.8255580357143,156.8640720180236L179.20848214285715,157.76351847596635L179.59140625,156.6137693230565L179.97433035714283,157.99318840124107L180.35725446428572,157.1138768975914L180.74017857142857,156.7293325235085L181.12310267857143,157.2307415856347L181.50602678571428,157.20318193195345L181.88895089285714,156.74789236681028L182.27187500000002,157.21225650732669L182.65479910714285,157.7417610389228L183.0377232142857,157.24364833035798L183.42064732142856,156.89880313814575L183.80357142857142,156.2555434625654L184.1864955357143,157.51096407770893L184.56941964285716,157.83316031696705L184.95234374999998,157.72803599855143L185.33526785714284,157.3196429302232L185.71819196428572,157.2794352228164L186.10111607142858,157.34941690469788L186.48404017857143,157.30218746680185L186.8669642857143,157.19798936925946L187.24988839285714,157.58718101589585L187.6328125,156.81496089146896L188.01573660714286,157.41250249423393L188.3986607142857,157.5802120122342L188.78158482142857,157.31397850361537L189.16450892857142,157.16984704294083L189.5474330357143,157.04176204479955L189.93035714285713,157.02685209255725L190.31328125,156.89458931718838L190.69620535714284,157.18926513893967L191.07912946428573,156.79646469109576L191.46205357142858,157.21573730180245L191.84497767857144,157.68666830093827L192.2279017857143,157.70175167501185L192.61082589285712,157.0549645540712L192.99375,157.65218402887405L193.37667410714286,157.4053069299851L193.75959821428572,156.7761858708298L194.14252232142857,157.5459216554362L194.52544642857143,156.93857337765513L194.90837053571428,157.684807620625L195.29129464285714,157.59505626190622L195.67421875,157.84827067234693L196.05714285714285,157.04672207394543L196.4400669642857,157.42203369217242L196.8229910714286,157.5895766881411L197.20591517857144,157.3008349000964L197.58883928571427,156.44373168905878L197.97176339285713,156.72398033858263L198.3546875,157.41454339319608L198.73761160714287,157.3230392793892L199.12053571428572,157.2705633161866L199.50345982142858,157.20998760602816L199.8863839285714,157.7036628165468L200.2693080357143,156.69567179917868L200.65223214285714,156.84042588953963L201.03515625,157.10223930408466L201.41808035714286,157.45882713153043L201.8010044642857,157.11145517087863L202.1839285714286,157.4285413360929L202.56685267857142,157.39596171769227L202.94977678571428,156.71492883119646L203.33270089285713,157.5367971337517L203.715625,157.42679784939247L204.09854910714287,157.50968679090766L204.48147321428573,156.52916480298592L204.86439732142856,157.53579388227882L205.2473214285714,157.3337218170389L205.6302455357143,157.68406738539744L206.01316964285715,156.32903271426477L206.39609375,157.52489024209245L206.77901785714286,156.64094423566786L207.16194196428572,157.6981292801691L207.54486607142857,157.6026752884889L207.92779017857143,157.49487353884325L208.31071428571428,157.78635866665246L208.69363839285714,156.98094329692032L209.0765625,156.59791667280734L209.45948660714288,157.3396323708301L209.8424107142857,157.21729233128718L210.22533482142856,157.62791413790075L210.60825892857142,157.56671559209173L210.99118303571427,157.03054338241492L211.37410714285716,157.58917093872589L211.75703125,157.83444100217713L212.13995535714287,156.52525931039128L212.5228794642857,157.1553922715146L212.90580357142858,156.010838461815L213.28872767857143,156.68706949964763L213.6716517857143,157.1563337337364L214.05457589285714,157.49906985284616L214.4375,157.5697586097238L214.82042410714286,157.4146018870204L215.2033482142857,157.91698866106236L215.58627232142857,157.33003876574804L215.96919642857142,157.895807614749L216.35212053571428,157.13488153559302L216.73504464285716,156.0897346849095L217.11796875000002,157.3721623518657L217.50089285714284,157.83558791365869L217.8838169642857,157.47664117857204L218.26674107142858,157.0236032137371L218.64966517857144,157.2798156386387L219.0325892857143,157.24335441948716L219.41551339285715,157.14284596408908L219.79843749999998,156.1486608280291L220.18136160714286,157.68731471948632L220.56428571428572,156.49361579914404L220.94720982142857,157.71684442045517L221.33013392857143,157.09631804015663L221.71305803571428,157.82284388062982L222.09598214285717,156.99696627953819L222.47890625,157.415254999404L222.86183035714285,156.91825665998186L223.2447544642857,157.29181675890578L223.62767857142856,157.431089318842L224.01060267857144,157.23974263179917L224.3935267857143,157.6756016401112L224.77645089285713,157.30356763270612L225.15937499999998,157.60356968789785L225.54229910714287,157.42410507383175L225.92522321428572,157.52440838891636L226.30814732142858,157.6642254151364L226.69107142857143,156.69073607380489L227.0739955357143,156.846357245712L227.45691964285714,157.5667965360106L227.83984375,156.43911870953963L228.22276785714286,156.76390196175709L228.6056919642857,157.38684286002245L228.98861607142857,156.94660412661398L229.37154017857145,157.7123910631679L229.75446428571428,156.7572763003671L230.13738839285713,157.91322456287054L230.5203125,157.49810841209984L230.90323660714284,157.74820411307593L231.28616071428573,157.7345609434622L231.66908482142858,156.7541435853389L232.05200892857144,156.84771001838163L232.43493303571427,157.6215449019026L232.81785714285715,156.7155450759936L233.20078125,157.47862523142322L233.58370535714286,157.2712357892022L233.96662946428572,156.7446498728794L234.34955357142857,157.37934700001352L234.73247767857143,157.50739471864L235.11540178571428,156.8742029836256L235.49832589285714,156.76782228377198L235.88125,157.61211586219252L236.26417410714285,157.22473196307766L236.64709821428573,157.25448925445454L237.03002232142856,157.68841353833415L237.41294642857142,157.08065631869323L237.79587053571427,156.30900743589228L238.17879464285716,157.48460025199967L238.56171875,157.4037047347054L238.94464285714287,157.40456916632758L239.32756696428572,157.2910925888835L239.71049107142855,157.64167522200188L240.09341517857143,157.0663181229873L240.4763392857143,157.03187555866754L240.85926339285714,156.4491248608545L241.2421875,157.63023761970436L241.62511160714286,157.7006592410533L242.0080357142857,157.6157559699539L242.39095982142857,157.67214895974467L242.77388392857142,156.98956248551332L243.15680803571428,156.08402741775427L243.53973214285713,156.39362843309647L243.92265625000002,157.5384289878719L244.30558035714287,157.8155247378789L244.6885044642857,155.811431572937L245.07142857142856,155.96710856113424L245.45435267857144,156.87769510613072L245.8372767857143,157.66577457464228L246.22020089285715,157.49872630461033L246.603125,157.43109117251953L246.98604910714283,156.61225033730153L247.36897321428572,157.64880559859085L247.75189732142857,156.5637453632997L248.13482142857143,157.34939424863916L248.51774553571428,156.74614682046814L248.90066964285714,157.1113359176241L249.28359375000002,157.66614046999058L249.66651785714285,157.66055194117945L250.0494419642857,157.09609498096034" style="fill: none;" fill="none"></path></g></g></g></g></g></g><g transform="translate(61, 176)" clip-path="url(#clip_1)"><clipPath id="clip_1"><rect width="268" height="23"></rect></clipPath><g><g><line x1="0" y1="0" x2="0" y2="5" style="visibility: inherit;" fill="rgb(0, 0, 0)" stroke="rgb(204, 204, 204)" stroke-width="1px"></line><line x1="19.146205357142858" y1="0" x2="19.146205357142858" y2="5" style="visibility: inherit;" fill="rgb(0, 0, 0)" stroke="rgb(204, 204, 204)" stroke-width="1px"></line><line x1="38.292410714285715" y1="0" x2="38.292410714285715" y2="5" style="visibility: inherit;" fill="rgb(0, 0, 0)" stroke="rgb(204, 204, 204)" stroke-width="1px"></line><line x1="57.43861607142857" y1="0" x2="57.43861607142857" y2="5" style="visibility: inherit;" fill="rgb(0, 0, 0)" stroke="rgb(204, 204, 204)" stroke-width="1px"></line><line x1="76.58482142857143" y1="0" x2="76.58482142857143" y2="5" style="visibility: inherit;" fill="rgb(0, 0, 0)" stroke="rgb(204, 204, 204)" stroke-width="1px"></line><line x1="95.73102678571429" y1="0" x2="95.73102678571429" y2="5" style="visibility: inherit;" fill="rgb(0, 0, 0)" stroke="rgb(204, 204, 204)" stroke-width="1px"></line><line x1="114.87723214285714" y1="0" x2="114.87723214285714" y2="5" style="visibility: inherit;" fill="rgb(0, 0, 0)" stroke="rgb(204, 204, 204)" stroke-width="1px"></line><line x1="134.0234375" y1="0" x2="134.0234375" y2="5" style="visibility: inherit;" fill="rgb(0, 0, 0)" stroke="rgb(204, 204, 204)" stroke-width="1px"></line><line x1="153.16964285714286" y1="0" x2="153.16964285714286" y2="5" style="visibility: inherit;" fill="rgb(0, 0, 0)" stroke="rgb(204, 204, 204)" stroke-width="1px"></line><line x1="172.31584821428572" y1="0" x2="172.31584821428572" y2="5" style="visibility: inherit;" fill="rgb(0, 0, 0)" stroke="rgb(204, 204, 204)" stroke-width="1px"></line><line x1="191.46205357142858" y1="0" x2="191.46205357142858" y2="5" style="visibility: inherit;" fill="rgb(0, 0, 0)" stroke="rgb(204, 204, 204)" stroke-width="1px"></line><line x1="210.60825892857142" y1="0" x2="210.60825892857142" y2="5" style="visibility: inherit;" fill="rgb(0, 0, 0)" stroke="rgb(204, 204, 204)" stroke-width="1px"></line><line x1="229.75446428571428" y1="0" x2="229.75446428571428" y2="5" style="visibility: inherit;" fill="rgb(0, 0, 0)" stroke="rgb(204, 204, 204)" stroke-width="1px"></line><line x1="248.90066964285714" y1="0" x2="248.90066964285714" y2="5" style="visibility: inherit;" fill="rgb(0, 0, 0)" stroke="rgb(204, 204, 204)" stroke-width="1px"></line><line x1="268.046875" y1="0" x2="268.046875" y2="5" style="visibility: inherit;" fill="rgb(0, 0, 0)" stroke="rgb(204, 204, 204)" stroke-width="1px"></line></g><g transform="translate(0, 8)"><text x="0" y="0" dx="0em" dy="0.95em" style="text-anchor: middle; visibility: hidden; font-family: Roboto, sans-serif; font-size: 12px; font-weight: 200;" fill="rgb(33, 33, 33)" stroke="none" stroke-width="1px">-50</text><text x="19.146205357142858" y="0" dx="0em" dy="0.95em" style="text-anchor: middle; visibility: inherit; font-family: Roboto, sans-serif; font-size: 12px; font-weight: 200;" fill="rgb(33, 33, 33)" stroke="none" stroke-width="1px">0</text><text x="38.292410714285715" y="0" dx="0em" dy="0.95em" style="text-anchor: middle; visibility: hidden; font-family: Roboto, sans-serif; font-size: 12px; font-weight: 200;" fill="rgb(33, 33, 33)" stroke="none" stroke-width="1px">50</text><text x="57.43861607142857" y="0" dx="0em" dy="0.95em" style="text-anchor: middle; visibility: inherit; font-family: Roboto, sans-serif; font-size: 12px; font-weight: 200;" fill="rgb(33, 33, 33)" stroke="none" stroke-width="1px">100</text><text x="76.58482142857143" y="0" dx="0em" dy="0.95em" style="text-anchor: middle; visibility: hidden; font-family: Roboto, sans-serif; font-size: 12px; font-weight: 200;" fill="rgb(33, 33, 33)" stroke="none" stroke-width="1px">150</text><text x="95.73102678571429" y="0" dx="0em" dy="0.95em" style="text-anchor: middle; visibility: inherit; font-family: Roboto, sans-serif; font-size: 12px; font-weight: 200;" fill="rgb(33, 33, 33)" stroke="none" stroke-width="1px">200</text><text x="114.87723214285714" y="0" dx="0em" dy="0.95em" style="text-anchor: middle; visibility: hidden; font-family: Roboto, sans-serif; font-size: 12px; font-weight: 200;" fill="rgb(33, 33, 33)" stroke="none" stroke-width="1px">250</text><text x="134.0234375" y="0" dx="0em" dy="0.95em" style="text-anchor: middle; visibility: inherit; font-family: Roboto, sans-serif; font-size: 12px; font-weight: 200;" fill="rgb(33, 33, 33)" stroke="none" stroke-width="1px">300</text><text x="153.16964285714286" y="0" dx="0em" dy="0.95em" style="text-anchor: middle; visibility: hidden; font-family: Roboto, sans-serif; font-size: 12px; font-weight: 200;" fill="rgb(33, 33, 33)" stroke="none" stroke-width="1px">350</text><text x="172.31584821428572" y="0" dx="0em" dy="0.95em" style="text-anchor: middle; visibility: inherit; font-family: Roboto, sans-serif; font-size: 12px; font-weight: 200;" fill="rgb(33, 33, 33)" stroke="none" stroke-width="1px">400</text><text x="191.46205357142858" y="0" dx="0em" dy="0.95em" style="text-anchor: middle; visibility: hidden; font-family: Roboto, sans-serif; font-size: 12px; font-weight: 200;" fill="rgb(33, 33, 33)" stroke="none" stroke-width="1px">450</text><text x="210.60825892857142" y="0" dx="0em" dy="0.95em" style="text-anchor: middle; visibility: inherit; font-family: Roboto, sans-serif; font-size: 12px; font-weight: 200;" fill="rgb(33, 33, 33)" stroke="none" stroke-width="1px">500</text><text x="229.75446428571428" y="0" dx="0em" dy="0.95em" style="text-anchor: middle; visibility: hidden; font-family: Roboto, sans-serif; font-size: 12px; font-weight: 200;" fill="rgb(33, 33, 33)" stroke="none" stroke-width="1px">550</text><text x="248.90066964285714" y="0" dx="0em" dy="0.95em" style="text-anchor: middle; visibility: inherit; font-family: Roboto, sans-serif; font-size: 12px; font-weight: 200;" fill="rgb(33, 33, 33)" stroke="none" stroke-width="1px">600</text><text x="268.046875" y="0" dx="0em" dy="0.95em" style="text-anchor: middle; visibility: hidden; font-family: Roboto, sans-serif; font-size: 12px; font-weight: 200;" fill="rgb(33, 33, 33)" stroke="none" stroke-width="1px">650</text></g><line x1="0" y1="0" x2="268.046875" y2="0" fill="rgb(0, 0, 0)" stroke="rgb(204, 204, 204)" stroke-width="1px"></line></g></g></g></g></svg>